<svg xmlns="http://www.w3.org/2000/svg" fill="none" viewBox="0 0 120 120">
  <path fill="#E8EDF2" d="M47.084 104.077l6.581-15.275h12.67l6.58 15.275h-25.83z"/>
  <path fill="#C5D3DD" d="M68.606 94.075l-2.271-5.273h-12.67l-2.271 5.273h17.212z"/>
  <path fill="#01C0FA" d="M111.886 7.019H8.114a6.356 6.356 0 00-6.356 6.356v69.07a6.356 6.356 0 006.356 6.357h103.772a6.356 6.356 0 006.356-6.357v-69.07a6.356 6.356 0 00-6.356-6.356z"/>
  <path fill="#0290CF" d="M111.886 7.019h-5.665a6.356 6.356 0 016.356 6.356v69.07a6.356 6.356 0 01-6.356 6.357h5.665a6.356 6.356 0 006.356-6.357v-69.07a6.356 6.356 0 00-6.356-6.356z"/>
  <path fill="#E8EDF2" d="M111.886 7.019H8.114a6.356 6.356 0 00-6.356 6.356v56.937a6.356 6.356 0 006.356 6.356h103.772a6.356 6.356 0 006.356-6.356V13.375a6.356 6.356 0 00-6.356-6.356z"/>
  <path fill="#C5D3DD" d="M117.956 11.485a6.35 6.35 0 00-6.07-4.466h-5.663a6.356 6.356 0 016.355 6.356V76.63a6.356 6.356 0 005.664-6.318V13.375c0-.658-.1-1.293-.286-1.89z"/>
  <path fill="#01C0FA" d="M77.254 104.077H42.746a5.828 5.828 0 00-5.828 5.828v1.141c0 1.069.867 1.935 1.936 1.935h42.292a1.935 1.935 0 001.936-1.935v-1.141a5.828 5.828 0 00-5.828-5.828z"/>
  <path fill="#0290CF" d="M77.254 104.077h-5.43a5.828 5.828 0 015.828 5.828v1.14a1.936 1.936 0 01-1.936 1.936h5.43a1.936 1.936 0 001.936-1.936v-1.14a5.828 5.828 0 00-5.828-5.828z"/>
  <path fill="#0ED2B3" d="M19.453 62.051H11.25a1.64 1.64 0 01-1.64-1.64V18.79c0-.905.734-1.64 1.64-1.64h8.203c.906 0 1.64.735 1.64 1.64v41.62a1.64 1.64 0 01-1.64 1.64z"/>
  <path fill="#FE9738" d="M109.348 14.898H86.803c-.647 0-1.172.525-1.172 1.172v19.113c0 .648.525 1.172 1.172 1.172h22.545c.647 0 1.172-.524 1.172-1.172V16.07c0-.647-.525-1.172-1.172-1.172z"/>
  <path fill="#000" d="M111.886 5.26H8.114C3.64 5.26 0 8.9 0 13.376v69.07c0 4.474 3.64 8.114 8.114 8.114h13.917a1.758 1.758 0 100-3.515H8.114a4.604 4.604 0 01-4.598-4.599v-5.453a8.066 8.066 0 004.598 1.434h103.772c1.706 0 3.29-.531 4.598-1.434v5.453a4.604 4.604 0 01-4.598 4.599H29.063a1.758 1.758 0 000 3.515h21.931l-5.066 11.76h-3.182c-4.183 0-7.586 3.403-7.586 7.586v1.141a3.698 3.698 0 003.694 3.693h42.293a3.698 3.698 0 003.693-3.693v-1.141c0-4.183-3.403-7.586-7.586-7.586h-3.181l-5.067-11.76h42.88c4.474 0 8.114-3.64 8.114-8.114v-69.07c0-4.474-3.64-8.114-8.114-8.114zM81.324 109.906v1.141c0 .098-.08.178-.178.178H38.854a.178.178 0 01-.178-.178v-1.141a4.075 4.075 0 014.07-4.07h4.328l.01.001.006-.001h25.82l.007.001.009-.001h4.328a4.075 4.075 0 014.07 4.07zm-11.08-7.586H49.755l5.067-11.76h10.356l5.067 11.76zm41.642-27.409H8.114a4.604 4.604 0 01-4.598-4.598V13.375a4.604 4.604 0 014.598-4.599h103.772a4.604 4.604 0 014.598 4.599v56.937a4.604 4.604 0 01-4.598 4.598z"/>
  <path fill="#000" d="M55.69 22.647l2.552-1.452v6.177a1.758 1.758 0 003.516 0v-6.177l2.553 1.452a1.757 1.757 0 101.738-3.056c-5.677-3.227-5.231-2.984-5.407-3.053a1.76 1.76 0 00-1.5.103l-.01.005-5.18 2.945a1.758 1.758 0 101.737 3.056zM41.497 56.377l-5.35 3.082v-2.917a1.758 1.758 0 00-3.516 0c0 6.254-.268 6.843.893 7.489l5.138 3a1.757 1.757 0 101.773-3.036l-2.543-1.484 5.36-3.087a1.758 1.758 0 00-1.755-3.047zM85.612 54.784c-.971 0-1.758.787-1.758 1.758v2.917l-5.351-3.082a1.758 1.758 0 00-1.755 3.047l5.36 3.087-2.543 1.484a1.758 1.758 0 101.773 3.036c4.777-2.87 5.692-2.98 5.976-4.098.116-.453.018-.426.055-6.391 0-.971-.787-1.758-1.757-1.758zM73.672 38.816L60.88 31.428a1.758 1.758 0 00-1.758 0l-12.793 7.387a1.758 1.758 0 00-.88 1.523c0 .044.006.087.01.13V55.11c0 .629.335 1.209.878 1.523l12.659 7.307c.038.027.076.055.117.079.271.157.575.235.878.235h.02c.303 0 .606-.078.878-.236.041-.023.079-.051.117-.078l12.658-7.307c.544-.314.88-.894.88-1.523V40.47c.003-.044.008-.087.008-.131 0-.628-.335-1.208-.879-1.523zM60 34.98l9.273 5.354L60 45.689l-9.273-5.354L60 34.981zm-11.027 8.407l9.26 5.346v10.707l-9.26-5.345V43.388zM61.767 59.44V48.734l9.26-5.346v10.708l-9.26 5.345zM19.453 15.393H11.25a3.402 3.402 0 00-3.398 3.399V60.41a3.402 3.402 0 003.398 3.399h8.203a3.402 3.402 0 003.399-3.399V18.792a3.402 3.402 0 00-3.399-3.399zm-.117 44.9h-7.969V18.91h7.969v41.384z"/>
  <path fill="#000" d="M14.688 27.595h1.328a1.758 1.758 0 000-3.515h-1.328a1.758 1.758 0 000 3.515zM14.688 36.771h1.328a1.758 1.758 0 000-3.516h-1.328a1.758 1.758 0 000 3.516zM14.688 45.947h1.328a1.758 1.758 0 000-3.516h-1.328a1.758 1.758 0 000 3.516zM14.688 55.123h1.328a1.758 1.758 0 000-3.516h-1.328a1.758 1.758 0 000 3.516zM109.348 13.14H86.803a2.933 2.933 0 00-2.93 2.93v19.113a2.933 2.933 0 002.93 2.93h22.545a2.933 2.933 0 002.929-2.93V16.07a2.933 2.933 0 00-2.929-2.93zm-.586 21.457H87.389v-17.94h21.373v17.94z"/>
  <path fill="#000" d="M92.45 24.338h5.391a1.758 1.758 0 000-3.516h-5.39a1.758 1.758 0 000 3.516zM92.45 30.431h11.25a1.758 1.758 0 100-3.515H92.45a1.758 1.758 0 000 3.515z"/>
</svg>
