<svg xmlns="http://www.w3.org/2000/svg" fill="none" viewBox="0 0 120 120">
  <path fill="#F5F5F5" d="M118.242 34.453v62.813a9.375 9.375 0 01-9.375 9.375H11.133c-5.178 0-9.375-4.198-9.375-9.375V34.453h116.484z"/>
  <path fill="#E6E6E6" d="M118.242 39.14v-4.687L60 32.11 1.758 34.453v62.813c0 5.177 4.197 9.375 9.375 9.375h4.687c-5.177 0-9.375-4.198-9.375-9.375V39.14h111.797z"/>
  <path fill="#50758D" d="M118.242 22.734v11.72H1.758v-11.72a9.375 9.375 0 019.375-9.375h97.734a9.375 9.375 0 019.375 9.375z"/>
  <path fill="#2B597F" d="M112.969 23.906a5.28 5.28 0 00-5.274-5.273H57.773a5.257 5.257 0 00-3.808 1.632c-1.118 1.115-.593.59-1.708 1.707a5.257 5.257 0 00-1.632 3.81 5.28 5.28 0 005.273 5.273h49.922a5.257 5.257 0 003.809-1.632c1.117-1.115.593-.59 1.708-1.708a5.26 5.26 0 001.632-3.809zM17.754 23.848a5.28 5.28 0 00-5.274-5.274 5.257 5.257 0 00-3.808 1.632c-1.118 1.115-.593.59-1.708 1.708a5.257 5.257 0 00-1.632 3.809 5.28 5.28 0 005.273 5.273 5.257 5.257 0 003.81-1.632c1.117-1.115.592-.59 1.707-1.707a5.257 5.257 0 001.632-3.81zM32.813 23.848a5.28 5.28 0 00-5.274-5.274 5.257 5.257 0 00-3.809 1.632c-1.117 1.115-.593.59-1.707 1.708a5.257 5.257 0 00-1.632 3.809 5.28 5.28 0 005.273 5.273 5.257 5.257 0 003.809-1.632c1.117-1.115.593-.59 1.707-1.707a5.257 5.257 0 001.633-3.81zM47.813 23.848a5.28 5.28 0 00-5.274-5.274 5.257 5.257 0 00-3.809 1.632c-1.117 1.115-.592.59-1.707 1.708a5.257 5.257 0 00-1.632 3.809 5.28 5.28 0 005.273 5.273 5.257 5.257 0 003.809-1.632c1.117-1.115.593-.59 1.708-1.707a5.257 5.257 0 001.632-3.81z"/>
  <path fill="#FD646F" d="M12.48 29.121a5.28 5.28 0 01-5.273-5.273 5.28 5.28 0 015.273-5.274 5.28 5.28 0 015.274 5.274 5.28 5.28 0 01-5.274 5.273z"/>
  <path fill="#FFC682" d="M27.54 29.18a5.28 5.28 0 01-5.274-5.274 5.28 5.28 0 015.273-5.273 5.28 5.28 0 015.273 5.273 5.28 5.28 0 01-5.273 5.274z"/>
  <path fill="#93DDB7" d="M42.54 29.18a5.28 5.28 0 01-5.274-5.274 5.28 5.28 0 015.273-5.273 5.28 5.28 0 015.273 5.273 5.28 5.28 0 01-5.273 5.274z"/>
  <path fill="#F5F5F5" d="M107.695 29.18H57.773a5.28 5.28 0 01-5.273-5.274 5.28 5.28 0 015.273-5.273h49.922a5.28 5.28 0 015.274 5.273 5.28 5.28 0 01-5.274 5.274z"/>
  <path fill="#50758D" d="M52.546 91.267a3.68 3.68 0 01-3.371-5.155L64.08 51.99a3.681 3.681 0 016.746 2.947L55.921 89.058a3.682 3.682 0 01-3.375 2.209zM37.824 89.94a3.67 3.67 0 01-2.602-1.078L21.418 75.06a3.681 3.681 0 010-5.206l13.619-13.619a3.681 3.681 0 015.205 5.206L29.227 72.457l11.2 11.2a3.681 3.681 0 01-2.603 6.283zM82.176 89.94a3.67 3.67 0 002.603-1.078L98.582 75.06a3.68 3.68 0 000-5.206l-13.62-13.619a3.681 3.681 0 00-5.205 5.206l11.016 11.016-11.2 11.2a3.681 3.681 0 002.603 6.283z"/>
  <path fill="#000" d="M1.758 86.696c.97 0 1.758-.787 1.758-1.758V36.211h77.578a1.758 1.758 0 100-3.516H3.516v-9.96c0-4.2 3.417-7.618 7.617-7.618h3.12a1.758 1.758 0 100-3.515h-3.12C4.994 11.602 0 16.596 0 22.734v62.204c0 .971.787 1.758 1.758 1.758z"/>
  <path fill="#000" d="M108.867 11.602H22.38a1.758 1.758 0 100 3.515h86.487c4.2 0 7.617 3.417 7.617 7.617v9.961H89.297a1.758 1.758 0 100 3.516h27.187v61.055c0 4.2-3.417 7.617-7.617 7.617H11.133c-4.2 0-7.617-3.417-7.617-7.617v-3.97a1.758 1.758 0 10-3.516 0v3.97c0 6.138 4.994 11.132 11.133 11.132h97.734c6.139 0 11.133-4.994 11.133-11.132V22.734c0-6.138-4.994-11.132-11.133-11.132z"/>
  <path fill="#000" d="M7.207 23.848a5.28 5.28 0 005.273 5.273 5.28 5.28 0 005.274-5.273 5.28 5.28 0 00-5.274-5.274 5.28 5.28 0 00-5.273 5.274zm7.031 0a1.76 1.76 0 01-1.758 1.758 1.76 1.76 0 01-1.757-1.758c0-.97.788-1.758 1.757-1.758.97 0 1.758.788 1.758 1.758zM32.813 23.906a5.28 5.28 0 00-5.274-5.273 5.28 5.28 0 00-5.273 5.273 5.28 5.28 0 005.273 5.274 5.28 5.28 0 005.273-5.274zm-7.032 0c0-.97.789-1.758 1.758-1.758.97 0 1.758.789 1.758 1.758a1.76 1.76 0 01-1.758 1.758 1.76 1.76 0 01-1.758-1.758zM47.813 23.906a5.28 5.28 0 00-5.274-5.273 5.28 5.28 0 00-5.273 5.273 5.28 5.28 0 005.273 5.274 5.28 5.28 0 005.273-5.274zm-7.032 0c0-.97.789-1.758 1.758-1.758.97 0 1.758.789 1.758 1.758a1.76 1.76 0 01-1.758 1.758 1.76 1.76 0 01-1.758-1.758zM107.695 29.18a5.28 5.28 0 005.274-5.274 5.28 5.28 0 00-5.274-5.273H57.773a5.28 5.28 0 00-5.273 5.273 5.28 5.28 0 005.273 5.274h49.922zm-51.68-5.274c0-.97.79-1.758 1.758-1.758h49.922c.97 0 1.758.789 1.758 1.758a1.76 1.76 0 01-1.758 1.758H57.773a1.76 1.76 0 01-1.757-1.758zM62.468 51.287l-14.904 34.12a5.446 5.446 0 002.808 7.162c2.673 1.22 6.028-.097 7.16-2.807L72.436 55.64a5.445 5.445 0 00-2.807-7.162 5.447 5.447 0 00-7.16 2.808zm6.746 2.946L54.31 88.354c-.4.959-1.585 1.425-2.531.993a1.925 1.925 0 01-.993-2.532L65.69 52.694a1.928 1.928 0 012.532-.993 1.925 1.925 0 01.992 2.532zM41.486 54.992a5.403 5.403 0 00-3.845-1.593 5.403 5.403 0 00-3.846 1.593l-13.62 13.619a5.404 5.404 0 00-1.592 3.846c0 1.453.566 2.818 1.593 3.846l13.803 13.802c2.024 2.11 5.667 2.11 7.691 0 2.11-2.024 2.11-5.667 0-7.691l-9.957-9.957 9.773-9.773a5.446 5.446 0 000-7.692zM39 60.198L27.984 71.214c-.681.655-.68 1.831 0 2.486l11.2 11.2c.746.715.746 2.004 0 2.72-.715.745-2.004.745-2.72 0L22.662 73.816c-.746-.716-.746-2.004 0-2.72L36.28 57.478c.716-.746 2.004-.746 2.72 0 .75.75.75 1.97 0 2.72zM91.654 79.501a1.758 1.758 0 102.486 2.486l5.684-5.684a5.406 5.406 0 001.593-3.846 5.405 5.405 0 00-1.593-3.846L86.206 54.992A5.403 5.403 0 0082.36 53.4a5.403 5.403 0 00-3.846 1.593 5.446 5.446 0 000 7.692l9.773 9.773-9.957 9.957a5.403 5.403 0 00-1.593 3.845c0 1.453.566 2.819 1.593 3.846a5.403 5.403 0 003.846 1.593 5.404 5.404 0 003.846-1.593l2.258-2.258a1.758 1.758 0 10-2.486-2.486l-2.258 2.258c-.716.746-2.004.746-2.72 0-.746-.715-.746-2.004 0-2.72l11.2-11.2a1.758 1.758 0 000-2.486L81 60.198c-.75-.75-.75-1.97 0-2.72.716-.746 2.004-.746 2.72 0l13.618 13.619c.364.363.564.846.564 1.36 0 .513-.2.996-.564 1.36L91.654 79.5z"/>
</svg>
