<svg xmlns="http://www.w3.org/2000/svg" fill="none" viewBox="0 0 20 20">
  <path fill="#fff" d="M15.273 18.75c-.762 0-1.833-.276-3.437-1.172-1.95-1.093-3.46-2.103-5.399-4.038-1.87-1.87-2.78-3.08-4.054-5.397-1.44-2.617-1.194-3.99-.92-4.576.327-.7.809-1.12 1.432-1.536.354-.231.728-.43 1.119-.593l.107-.048c.194-.087.487-.218.858-.078.248.093.469.283.815.625.71.7 1.68 2.26 2.037 3.025.24.516.4.856.4 1.239 0 .447-.225.792-.498 1.164-.051.07-.102.137-.151.202-.298.39-.363.503-.32.705.087.405.737 1.61 1.804 2.676 1.068 1.065 2.239 1.674 2.646 1.76.21.045.325-.023.728-.33.058-.045.117-.09.18-.136.416-.31.745-.529 1.182-.529h.002c.38 0 .705.165 1.244.437.704.354 2.31 1.312 3.014 2.022.342.346.533.566.627.813.14.373.008.664-.079.86l-.047.107c-.164.39-.364.763-.597 1.117-.415.62-.836 1.101-1.538 1.428-.361.171-.756.257-1.155.253z"/>
</svg>
