<svg xmlns="http://www.w3.org/2000/svg" fill="none" viewBox="0 0 20 20">
  <path fill="#fff" fill-rule="evenodd" d="M18.934 5.156c.139-.44 0-.76-.616-.76h-2.045c-.516 0-.755.28-.894.58 0 0-1.052 2.562-2.522 4.224-.476.48-.694.64-.953.64-.139 0-.318-.16-.318-.6V5.136c0-.52-.158-.761-.595-.761H7.773a.495.495 0 00-.516.48c0 .5.735.621.814 2.022v3.045c0 .66-.117.781-.377.781-.695 0-2.383-2.582-3.396-5.525-.196-.583-.396-.803-.913-.803H1.32c-.596 0-.695.28-.695.58 0 .541.695 3.263 3.237 6.867 1.688 2.46 4.09 3.783 6.255 3.783 1.31 0 1.47-.3 1.47-.8v-1.862c0-.6.119-.7.536-.7.297 0 .834.159 2.045 1.34 1.39 1.401 1.628 2.042 2.403 2.042h2.045c.596 0 .874-.3.715-.88-.179-.581-.854-1.422-1.728-2.423-.476-.56-1.191-1.18-1.41-1.481-.297-.4-.218-.56 0-.92-.02 0 2.483-3.564 2.74-4.766" clip-rule="evenodd"/>
</svg>
