<svg xmlns="http://www.w3.org/2000/svg" fill="none" viewBox="0 0 120 120">
  <g clip-path="url(#clip0)">
    <path fill="#60A4FF" d="M117.656 2.344l-21.68 5.809 3.735 3.734-28.305 28.306-23.134-23.135L2.344 62.985l8.796 8.797L48.272 34.65l23.134 23.134 37.101-37.101 3.34 3.34 5.809-21.68z"/>
    <path fill="#FF6977" d="M99.844 44.453h13.125v73.203H99.844V44.453z"/>
    <path fill="#CFF1FB" d="M7.031 93.829h13.125v23.827H7.031V93.829z"/>
    <path fill="#CBE558" d="M30.234 72.422H43.36v45.234H30.234V72.422z"/>
    <path fill="#60A4FF" d="M53.438 84.844h13.124v32.812H53.438V84.844z"/>
    <path fill="#FFCB7C" d="M76.64 72.422h13.126v45.234H76.64V72.422z"/>
    <path fill="#000" d="M9.483 73.439a2.336 2.336 0 001.657.687c.6 0 1.2-.23 1.657-.687l35.475-35.474 21.476 21.477a2.345 2.345 0 003.316 0L85.52 46.985a2.343 2.343 0 10-3.314-3.314l-10.8 10.8-21.477-21.478a2.347 2.347 0 00-3.315 0L11.14 68.468l-5.482-5.483 42.614-42.613L69.749 41.85a2.344 2.344 0 003.315 0l28.304-28.306a2.344 2.344 0 000-3.314l-.863-.864 13.836-3.707-3.707 13.836-.47-.468a2.342 2.342 0 00-3.314 0L95.465 30.412a2.344 2.344 0 103.315 3.315L108.508 24l1.682 1.682a2.345 2.345 0 003.921-1.05l5.809-21.68A2.344 2.344 0 00117.05.08L95.37 5.889a2.345 2.345 0 00-1.05 3.921l2.077 2.077-24.99 24.99L49.928 15.4a2.344 2.344 0 00-3.314 0L.687 61.328a2.344 2.344 0 000 3.316l8.796 8.795z"/>
    <path fill="#000" d="M117.656 115.312h-2.344V44.453a2.343 2.343 0 00-2.344-2.343H99.844a2.344 2.344 0 00-2.344 2.343v70.859h-5.39v-42.89a2.344 2.344 0 00-2.345-2.344H76.641a2.344 2.344 0 00-2.344 2.344v42.89h-5.39V84.844a2.344 2.344 0 00-2.345-2.344H53.437a2.344 2.344 0 00-2.343 2.344v30.468h-5.391v-42.89a2.344 2.344 0 00-2.344-2.344H30.234a2.344 2.344 0 00-2.343 2.344v42.89H22.5V93.828a2.344 2.344 0 00-2.344-2.344H7.031a2.344 2.344 0 00-2.344 2.344v21.484H2.344a2.344 2.344 0 000 4.688h115.312a2.343 2.343 0 100-4.688zm-108.281 0v-19.14h8.438v19.14H9.374zm23.203 0V74.766h8.438v40.546h-8.438zm23.203 0V87.187h8.438v28.125H55.78zm23.203 0V74.766h8.438v40.546h-8.438zm23.203 0V46.797h8.438v68.515h-8.438zM88.836 37.04a2.363 2.363 0 00-.687 1.657 2.349 2.349 0 002.344 2.344c.616 0 1.22-.248 1.657-.686.437-.436.686-1.04.686-1.657a2.36 2.36 0 00-.686-1.658 2.364 2.364 0 00-1.657-.686 2.36 2.36 0 00-1.657.686z"/>
  </g>
  <defs>
    <clipPath id="clip0">
      <path fill="#fff" d="M0 0h120v120H0z"/>
    </clipPath>
  </defs>
</svg>
