<svg xmlns="http://www.w3.org/2000/svg" fill="none" viewBox="0 0 20 20">
  <path fill="#fff" d="M19.375 4.277a7.882 7.882 0 01-2.209.598 3.809 3.809 0 001.693-2.094 7.724 7.724 0 01-2.444.918 3.872 3.872 0 00-2.81-1.199C11.48 2.5 9.76 4.195 9.76 6.285c-.002.29.032.58.099.863a10.965 10.965 0 01-7.93-3.957 3.738 3.738 0 00-.523 1.903c0 1.312.685 2.472 1.719 3.152a3.809 3.809 0 01-1.75-.473v.047c0 1.836 1.329 3.364 3.087 3.711-.33.088-.671.133-1.014.133-.242 0-.485-.023-.723-.07.49 1.504 1.911 2.597 3.596 2.629a7.797 7.797 0 01-5.696 1.566A10.886 10.886 0 006.513 17.5c7.085 0 10.955-5.77 10.955-10.773 0-.164-.004-.329-.012-.489a7.752 7.752 0 001.919-1.96z"/>
</svg>
