<svg xmlns="http://www.w3.org/2000/svg" fill="none" viewBox="0 0 120 120">
  <path fill="#FF826E" d="M20.625 93.75a3.75 3.75 0 100-7.5 3.75 3.75 0 000 7.5zM106.875 33.75a3.75 3.75 0 100-7.5 3.75 3.75 0 000 7.5z"/>
  <path fill="#FFC729" d="M31.875 65.981V78.75h-11.25l-1.275-5.081c-.188-.075-.375-.132-.563-.225l-4.462 2.7-7.969-7.969 2.7-4.462c-.093-.188-.15-.376-.225-.563L3.75 61.875v-11.25l5.081-1.275c.075-.188.132-.375.225-.563l-2.7-4.462 7.969-7.969 4.463 2.7c.187-.093.375-.15.562-.225l1.275-5.081h11.25v12.769A11.22 11.22 0 0026.25 45C20.044 45 15 50.044 15 56.25S20.044 67.5 26.25 67.5a11.22 11.22 0 005.625-1.519z"/>
  <path fill="#AAB2BD" d="M95.625 101.25v7.5c0 4.144-3.356 7.5-7.5 7.5h-48.75a7.498 7.498 0 01-7.5-7.5v-7.5h63.75zM95.625 11.25v7.5h-63.75v-7.5c0-4.144 3.356-7.5 7.5-7.5h48.75c4.144 0 7.5 3.356 7.5 7.5z"/>
  <path fill="#69D6F4" d="M31.875 18.75h63.75v82.5h-63.75v-82.5z"/>
  <path fill="#FFEAA7" d="M39.375 26.25h48.75v67.5h-48.75v-67.5z"/>
  <path fill="#FF826E" d="M46.875 33.75h33.75v22.5h-33.75v-22.5z"/>
  <path fill="#E6E9ED" d="M91.875 86.25c13.462 0 24.375-10.913 24.375-24.375S105.337 37.5 91.875 37.5 67.5 48.413 67.5 61.875 78.413 86.25 91.875 86.25z"/>
  <path fill="#B4DD7F" d="M95.625 85.969a24.691 24.691 0 01-3.75.281c-1.275 0-2.531-.094-3.75-.281a24.307 24.307 0 01-15-8.531v-2.213a7.517 7.517 0 015.681-7.275l9.319-2.325v-2.906c-2.231-1.313-3.75-3.694-3.75-6.469v-3.356c0-3.956 2.888-7.519 6.825-7.856a7.491 7.491 0 018.175 7.462v3.75c0 2.775-1.519 5.156-3.75 6.469v2.906l9.319 2.325a7.517 7.517 0 015.681 7.275v2.213a24.308 24.308 0 01-15 8.53z"/>
  <path fill="#000" d="M118.125 61.875c0-12.542-8.846-23.044-20.625-25.627V11.25c0-5.17-4.206-9.375-9.375-9.375h-48.75C34.205 1.875 30 6.081 30 11.25v20.625H19.16l-1.13 4.53-4.001-2.402L4 44.025l2.402 4.005-4.528 1.13v14.18l4.53 1.13-2.404 4.005 10.026 10.024 4.001-2.402 1.133 4.528H30v28.125c0 5.169 4.206 9.375 9.375 9.375h48.75c5.17 0 9.375-4.206 9.375-9.375V87.502c11.779-2.583 20.625-13.085 20.625-25.627zm-3.75 0c0 3.654-.894 7.097-2.447 10.151a9.355 9.355 0 00-6.529-5.89L97.5 64.162v-.449c2.336-1.76 3.75-4.53 3.75-7.46v-3.75c0-2.62-1.108-5.14-3.041-6.913a9.425 9.425 0 00-7.166-2.426c-4.791.414-8.543 4.689-8.543 9.725v3.362c0 2.93 1.414 5.7 3.75 7.46v.449l-7.9 1.976a9.354 9.354 0 00-6.528 5.89 22.32 22.32 0 01-2.447-10.15c0-12.407 10.093-22.5 22.5-22.5s22.5 10.093 22.5 22.5zM86.25 36.248c-1.29.283-2.539.673-3.75 1.138v-5.511H45v26.25h20.925c-.178 1.228-.3 2.473-.3 3.75 0 12.542 8.846 23.044 20.625 25.627v4.373h-45v-63.75h45v8.123zM66.731 54.374H48.75v-18.75h30v3.551c-5.726 3.325-10.088 8.736-12.019 15.199zM39.375 5.625h48.75a5.632 5.632 0 015.625 5.625v5.625h-60V11.25a5.632 5.632 0 015.625-5.625zM30 64.823a9.314 9.314 0 01-3.75.802c-5.17 0-9.375-4.206-9.375-9.375 0-5.17 4.206-9.375 9.375-9.375 1.29 0 2.567.281 3.75.803v17.145zm-7.91 12.052l-.914-3.654-.38-1.004-2.142-.87-4.046 2.43-5.884-5.885 2.43-4.048-.937-2.288-4.592-1.145v-8.322l4.586-1.145.943-2.288-2.43-4.048 5.884-5.886 4.046 2.43 2.288-.93 1.147-4.597H30v8.072a13.033 13.033 0 00-3.75-.572c-7.238 0-13.125 5.89-13.125 13.125 0 7.236 5.887 13.125 13.125 13.125 1.273 0 2.533-.206 3.75-.572v8.072h-7.91zm66.035 37.5h-48.75a5.632 5.632 0 01-5.625-5.625v-5.625h60v5.625a5.632 5.632 0 01-5.625 5.625zm5.625-15h-60v-78.75h60v15.096c-.623-.045-1.241-.096-1.875-.096-.634 0-1.252.05-1.875.096V24.375H37.5v71.25H90v-7.596c.623.045 1.241.096 1.875.096.634 0 1.252-.05 1.875-.096v11.346zm-1.875-15c-6.722 0-12.748-2.98-16.875-7.667v-1.477a5.62 5.62 0 014.26-5.459L90 67.09v-5.458l-.932-.542c-1.764-1.027-2.818-2.837-2.818-4.839v-3.362c0-3.11 2.248-5.741 5.117-5.99 1.609-.13 3.133.376 4.309 1.454A5.643 5.643 0 0197.5 52.5v3.75c0 2.002-1.054 3.812-2.818 4.84l-.932.541v5.458l10.74 2.683a5.62 5.62 0 014.26 5.459v1.477c-4.127 4.688-10.153 7.667-16.875 7.667z"/>
  <path fill="#000" d="M71.25 9.375H75v3.75h-3.75v-3.75zM52.5 9.375h15v3.75h-15v-3.75zM56.25 106.875h15v3.75h-15v-3.75zM82.5 106.875h3.75v3.75H82.5v-3.75zM41.25 106.875H45v3.75h-3.75v-3.75zM45 61.875h16.875v3.75H45v-3.75zM45 69.375h16.875v3.75H45v-3.75zM45 76.875h16.875v3.75H45v-3.75zM45 84.375h16.875v3.75H45v-3.75zM106.875 35.625A5.632 5.632 0 00112.5 30c0-2.441-1.573-4.504-3.75-5.28V9.375H105V24.72c-2.177.776-3.75 2.839-3.75 5.28a5.632 5.632 0 005.625 5.625zm0-7.5c1.033 0 1.875.84 1.875 1.875a1.877 1.877 0 01-1.875 1.875A1.877 1.877 0 01105 30c0-1.035.842-1.875 1.875-1.875zM105 1.875h3.75v3.75H105v-3.75zM20.625 84.375A5.632 5.632 0 0015 90c0 2.441 1.573 4.504 3.75 5.28v15.345h3.75V95.28c2.177-.776 3.75-2.839 3.75-5.28a5.632 5.632 0 00-5.625-5.625zm0 7.5A1.877 1.877 0 0118.75 90c0-1.035.842-1.875 1.875-1.875S22.5 88.965 22.5 90a1.877 1.877 0 01-1.875 1.875zM18.75 114.375h3.75v3.75h-3.75v-3.75z"/>
</svg>
